<svg xmlns="http://www.w3.org/2000/svg" viewBox="0 0 511 502">
  <title>Mac Media</title>
  <g transform="translate(0,502) scale(0.1,-0.1)">
    <path fill="#292c30" d="M2390 4933 c-118 -7 -266 -27 -370 -48 -135 -27 -333 -85 -440 -127
-191 -76 -470 -237 -614 -356 -256 -210 -494 -499 -629 -759 -52 -102 -124
-280 -161 -403 -97 -321 -118 -690 -61 -1060 57 -375 189 -709 408 -1035 100
-149 328 -390 492 -520 118 -94 345 -241 440 -286 220 -102 310 -135 505 -184
157 -39 236 -52 404 -70 193 -20 484 -6 720 35 102 18 322 78 424 116 197 73
415 190 582 312 99 73 241 195 316 274 109 113 166 191 330 448 38 60 131 271
160 360 14 47 30 90 34 95 12 15 80 306 84 361 3 27 9 90 15 139 6 50 11 173
11 275 0 202 -19 368 -64 554 -57 236 -226 620 -363 824 -76 113 -76 113 -97
78 -30 -50 -96 -95 -159 -108 -114 -24 -225 28 -279 131 -64 123 -18 273 108
347 10 7 17 14 14 16 -90 76 -278 203 -390 265 -229 127 -547 235 -859 293
-156 30 -402 44 -561 33z"/>
    <path fill="#ffffff" d="M1180 3728 c-36 -13 -86 -35 -112 -51 -61 -36 -150 -114 -211 -185
-69 -80 -184 -257 -255 -392 -33 -63 -95 -191 -137 -285 -81 -180 -207 -490
-270 -665 -21 -58 -42 -110 -46 -115 -4 -6 5 -60 20 -120 28 -113 94 -296 141
-397 26 -55 28 -57 33 -30 8 38 131 355 224 576 94 222 263 565 348 706 36 59
91 138 123 176 31 37 76 83 100 101 23 18 58 37 78 42 52 14 90 -3 116 -52 16
-31 22 -67 26 -147 2 -58 -1 -161 -7 -230 -7 -69 -27 -224 -46 -345 -55 -351
-55 -355 -44 -401 6 -23 23 -54 39 -69 15 -15 45 -31 66 -36 56 -13 133 5 176
41 29 24 45 52 76 133 50 129 157 361 228 496 30 57 84 147 119 201 35 53 91
122 124 153 65 59 112 78 150 58 44 -24 46 -39 46 -376 0 -272 3 -330 18 -388
9 -38 29 -93 44 -123 37 -76 102 -138 171 -164 43 -17 71 -21 117 -17 65 5
139 36 149 62 3 9 6 18 6 20 0 2 -21 27 -46 57 -25 29 -58 80 -74 113 -16 33
-37 89 -46 125 -13 47 -18 110 -18 230 -1 91 3 262 8 380 6 157 5 237 -4 295
-6 44 -23 105 -37 137 -14 31 -37 67 -51 81 -32 30 -81 52 -139 62 -49 8 -140
-13 -211 -49 -27 -14 -75 -47 -108 -74 -33 -28 -87 -83 -121 -124 -33 -40 -93
-122 -133 -183 -41 -60 -75 -112 -77 -114 -12 -15 -12 24 -2 149 9 107 9 171
0 254 -6 61 -18 138 -26 171 -9 33 -30 89 -47 124 -18 35 -52 83 -75 107 -24
23 -69 55 -100 70 -47 23 -73 29 -147 31 -75 3 -103 0 -156 -19z M3245 3064
c-38 -9 -104 -31 -145 -51 -58 -28 -94 -56 -161 -122 -73 -73 -94 -102 -132
-181 -25 -52 -54 -129 -63 -170 -23 -98 -23 -254 0 -340 9 -36 28 -89 41 -118
13 -29 52 -82 85 -116 44 -46 80 -72 130 -95 51 -24 90 -34 142 -38 40 -3 100
0 133 6 33 6 97 29 142 51 45 22 107 63 137 91 l56 51 50 -45 c28 -25 71 -52
97 -61 46 -16 166 -22 197 -10 13 5 5 18 -36 63 -29 31 -68 84 -85 117 -18 34
-40 92 -49 130 -11 44 -17 116 -18 199 -1 113 -3 130 -18 133 -9 2 -35 -13
-58 -34 -22 -20 -74 -87 -114 -148 -40 -61 -96 -133 -125 -159 -28 -27 -73
-58 -99 -69 -28 -13 -69 -22 -103 -22 -45 -1 -64 5 -96 26 -26 17 -49 45 -64
75 -20 40 -24 63 -23 138 0 69 6 104 24 150 17 45 40 77 89 126 53 53 77 69
125 83 42 13 77 17 125 13 50 -3 86 -14 150 -46 47 -22 98 -41 114 -41 18 0
39 10 58 29 25 26 29 37 29 88 0 44 -7 73 -26 112 -30 60 -101 121 -181 157
-56 25 -153 44 -218 43 -22 0 -71 -7 -110 -15z M4261 3050 c-30 -11 -79 -34
-109 -52 -30 -18 -81 -62 -114 -97 -32 -36 -74 -96 -93 -135 -51 -104 -75
-210 -75 -330 0 -56 7 -130 15 -165 9 -35 31 -94 50 -130 19 -36 54 -88 76
-114 23 -26 67 -65 98 -86 31 -21 81 -47 112 -59 30 -11 92 -26 136 -32 62 -9
102 -9 168 -1 48 7 115 22 149 35 34 12 91 39 127 59 36 20 98 66 137 102 50
46 75 78 82 103 6 20 13 114 16 207 l5 170 -25 -67 c-13 -37 -34 -84 -45 -104
-40 -67 -92 -123 -153 -164 -33 -22 -89 -49 -125 -60 -89 -27 -194 -27 -270 2
-74 27 -143 97 -174 175 -18 45 -23 79 -23 153 0 76 4 106 23 152 13 33 44 81
72 112 27 30 69 64 93 75 23 12 82 30 131 40 90 19 115 35 115 73 0 31 -28 75
-63 102 -18 14 -53 32 -76 41 -26 9 -77 15 -125 15 -54 -1 -99 -7 -135 -20z
M1570 1113 l0 -163 35 0 35 0 0 95 c0 52 3 95 8 95 4 0 21 -26 38 -58 19 -36
38 -58 50 -60 16 -2 27 10 50 57 16 33 32 60 37 60 4 1 7 -42 7 -94 l0 -95 35
0 35 0 0 160 0 160 -43 0 -43 0 -38 -77 -38 -78 -39 76 -38 77 -46 4 -45 3 0
-162z M2110 1110 l0 -160 110 0 110 0 0 30 0 29 -72 3 -71 3 -1 33 c-1 28 2
32 24 32 14 0 42 3 63 7 34 5 38 9 35 32 -3 24 -7 26 -60 29 -57 3 -58 4 -58
32 l0 30 70 0 70 0 0 30 0 30 -110 0 -110 0 0 -160z M2530 1110 l0 -160 78 0
c55 0 89 6 120 20 34 15 47 29 64 66 15 36 19 58 14 92 -3 25 -14 59 -24 76
-10 17 -33 39 -52 48 -25 13 -59 18 -117 18 l-83 0 0 -160z m182 70 c11 -14
18 -39 18 -66 0 -30 -7 -51 -23 -69 -16 -19 -33 -27 -62 -28 l-40 -2 -3 99 -3
99 48 -6 c32 -3 53 -12 65 -27z M3000 1110 l0 -160 40 0 40 0 0 160 0 160 -40
0 -40 0 0 -160z M3316 1120 c-31 -83 -56 -155 -56 -160 0 -6 16 -10 36 -10 31
0 37 4 50 35 14 34 16 35 68 35 53 0 55 -1 66 -35 11 -32 15 -35 52 -35 28 0
39 4 36 13 -2 6 -29 78 -59 159 l-54 148 -41 0 -42 0 -56 -150z m130 -24 c6
-24 4 -26 -30 -26 -20 0 -36 4 -36 9 0 7 13 52 27 91 4 10 9 6 19 -16 7 -17
16 -43 20 -58z"/>
  </g>
  <circle cx="429" cy="92" r="27" fill="#e2454a"/>
</svg>