<svg xmlns="http://www.w3.org/2000/svg" viewBox="0 0 511 502">
  <title>Mac Media</title>
  <g transform="translate(0,502) scale(0.1,-0.1)">
    <path fill="#292c30" d="M2390 4933 c-119 -8 -266 -27 -374 -49 -136 -27 -326 -82 -433 -125
-196 -78 -471 -237 -617 -357 -156 -128 -321 -300 -447 -467 -61 -80 -141
-208 -189 -303 -81 -163 -167 -405 -199 -567 -40 -201 -58 -474 -42 -660 34
-418 138 -764 325 -1088 81 -141 135 -215 261 -362 114 -132 259 -272 356
-344 30 -22 59 -44 65 -49 6 -6 71 -49 145 -97 128 -84 203 -123 369 -195 220
-96 484 -158 800 -191 160 -16 407 -1 670 40 118 19 343 83 484 138 350 136
729 411 950 688 161 202 330 507 386 695 13 41 26 80 30 85 11 15 57 199 82
328 18 92 22 159 25 371 3 224 1 278 -17 396 -28 185 -60 312 -120 476 -70
191 -205 464 -291 590 -72 104 -72 104 -93 69 -30 -50 -96 -94 -159 -107 -114
-24 -225 28 -279 131 -22 42 -28 67 -28 115 0 97 48 179 136 233 19 11 19 12
-1 26 -11 8 -55 41 -97 73 -105 80 -214 149 -333 209 -99 51 -117 59 -265 117
-156 61 -334 110 -539 148 -156 30 -402 44 -561 33z"/>
    <path fill="#ffffff" d="M1180 3728 c-36 -13 -86 -35 -112 -51 -61 -36 -150 -114 -211 -185
-69 -80 -184 -257 -255 -392 -33 -63 -95 -191 -137 -285 -81 -180 -207 -490
-270 -665 -21 -58 -42 -110 -46 -115 -4 -6 5 -62 21 -125 31 -121 88 -283 138
-387 28 -59 30 -61 35 -35 8 38 131 355 224 576 94 222 263 565 348 706 36 59
91 138 123 176 31 37 76 83 100 101 23 18 58 37 78 42 52 14 90 -3 116 -52 16
-31 22 -67 26 -147 2 -58 -1 -161 -7 -230 -7 -69 -27 -224 -46 -345 -55 -351
-55 -355 -44 -401 6 -23 23 -54 39 -69 15 -15 45 -31 66 -36 56 -13 133 5 176
41 29 24 45 52 76 133 50 129 157 361 228 496 30 57 84 147 119 201 35 53 91
122 124 153 65 59 112 78 150 58 44 -24 46 -39 46 -376 0 -272 3 -330 18 -388
9 -38 29 -93 44 -123 37 -76 102 -138 171 -164 43 -17 71 -21 117 -17 65 5
139 36 149 62 3 9 6 18 6 20 0 2 -21 27 -46 57 -25 29 -58 80 -74 113 -16 33
-37 89 -46 125 -13 47 -18 110 -18 230 -1 91 3 262 8 380 6 157 5 237 -4 295
-6 44 -23 105 -37 137 -14 31 -37 67 -51 81 -32 30 -81 52 -139 62 -49 8 -140
-13 -211 -49 -27 -14 -75 -47 -108 -74 -33 -28 -87 -83 -121 -124 -33 -40 -93
-122 -133 -183 -41 -60 -75 -112 -77 -114 -12 -15 -12 24 -2 149 9 107 9 171
0 254 -6 61 -18 138 -26 171 -9 33 -30 89 -47 124 -18 35 -52 83 -75 107 -24
23 -69 55 -100 70 -47 23 -73 29 -147 31 -75 3 -103 0 -156 -19z M3245 3064
c-38 -9 -104 -31 -145 -51 -58 -28 -94 -56 -161 -122 -73 -73 -94 -102 -132
-181 -25 -52 -54 -129 -63 -170 -23 -98 -23 -254 0 -340 9 -36 28 -89 41 -118
13 -29 52 -82 85 -116 44 -46 80 -72 130 -95 51 -24 90 -34 142 -38 40 -3 100
0 133 6 33 6 97 29 142 51 45 22 107 63 137 91 l56 51 50 -45 c28 -25 71 -52
97 -61 46 -16 166 -22 197 -10 13 5 5 18 -36 63 -29 31 -68 84 -85 117 -18 34
-40 92 -49 130 -11 44 -17 116 -18 199 -1 113 -3 130 -18 133 -9 2 -35 -13
-58 -34 -22 -20 -74 -87 -114 -148 -40 -61 -96 -133 -125 -159 -28 -27 -73
-58 -99 -69 -28 -13 -69 -22 -103 -22 -45 -1 -64 5 -96 26 -26 17 -49 45 -64
75 -20 40 -24 63 -23 138 0 69 6 104 24 150 17 45 40 77 89 126 53 53 77 69
125 83 42 13 77 17 125 13 50 -3 86 -14 150 -46 47 -22 98 -41 114 -41 18 0
39 10 58 29 25 26 29 37 29 88 0 44 -7 73 -26 112 -30 60 -101 121 -181 157
-56 25 -153 44 -218 43 -22 0 -71 -7 -110 -15z M4261 3050 c-30 -11 -79 -34
-109 -52 -30 -18 -81 -62 -114 -97 -32 -36 -74 -96 -93 -135 -51 -104 -75
-210 -75 -330 0 -56 7 -130 15 -165 9 -35 31 -94 50 -130 19 -36 54 -88 76
-114 23 -26 67 -65 98 -86 31 -21 81 -47 112 -59 30 -11 92 -26 137 -32 61 -9
101 -9 164 -1 46 6 110 20 143 31 33 11 91 37 128 58 38 21 104 70 146 108 62
55 80 78 89 112 7 26 12 112 11 220 -1 140 -3 167 -11 128 -5 -26 -22 -76 -37
-110 -15 -33 -47 -84 -70 -113 -23 -29 -69 -70 -102 -92 -34 -23 -90 -50 -126
-61 -89 -27 -194 -27 -270 2 -74 27 -143 97 -174 175 -18 45 -23 79 -23 153 0
76 4 106 23 152 13 33 44 81 72 112 27 30 69 64 93 75 23 12 82 30 131 40 90
19 115 35 115 73 0 31 -28 75 -63 102 -18 14 -53 32 -76 41 -26 9 -77 15 -125
15 -54 -1 -99 -7 -135 -20z"/>
  </g>
  <circle cx="429" cy="92" r="27" fill="#e2454a"/>
</svg>